<svg xmlns="http://www.w3.org/2000/svg" width="28" height="22" viewBox="0 0 28 22">
  <g id="Group_16" data-name="Group 16" transform="translate(-356.15 -17)">
    <rect id="Rectangle_22" data-name="Rectangle 22" width="28" height="4" rx="2" transform="translate(356.15 26)" fill="#221282"/>
    <path id="Rectangle_24" data-name="Rectangle 24" d="M0,0H16a0,0,0,0,1,0,0V2a2,2,0,0,1-2,2H0A0,0,0,0,1,0,4V0A0,0,0,0,1,0,0Z" transform="translate(356.15 17)" fill="#221282"/>
    <path id="Rectangle_25" data-name="Rectangle 25" d="M2,0H15a0,0,0,0,1,0,0V4a0,0,0,0,1,0,0H0A0,0,0,0,1,0,4V2A2,2,0,0,1,2,0Z" transform="translate(369.15 35)" fill="#221282"/>
  </g>
</svg>
