<svg xmlns="http://www.w3.org/2000/svg" xmlns:xlink="http://www.w3.org/1999/xlink" width="262.767" height="260.517" viewBox="0 0 262.767 260.517">
  <defs>
    <linearGradient id="linear-gradient" x1="-0.032" x2="1" y2="1" gradientUnits="objectBoundingBox">
      <stop offset="0" stop-color="#aadaf5"/>
      <stop offset="1" stop-color="#6359af"/>
    </linearGradient>
  </defs>
  <g id="undraw_studying_re_deca" transform="translate(0 0)">
    <path id="Path_15" data-name="Path 15" d="M435.88,159.257a130,130,0,0,1-7.447,43.517c0,.009-.006.015-.009.025-.022.065-.043.124-.068.189v0q-1.583,4.446-3.478,8.744a130.185,130.185,0,0,1-11.466,20.674q-1.615,2.386-3.345,4.694-1.9,2.553-3.926,5-1.866,2.26-3.83,4.434-2.334,2.59-4.808,5.046a130.3,130.3,0,0,1-12.339,10.829q-1.142.886-2.308,1.742-2.715,2-5.538,3.868a129.156,129.156,0,0,1-12.862,7.475c-.764.39-1.535.774-2.308,1.145q-4.488,2.167-9.158,3.988c-.888.35-1.779.687-2.679,1.012-.152.059-.3.114-.458.167a129.424,129.424,0,0,1-33.125,7.234q-1.179.107-2.361.179-1.253.088-2.509.142c-.662.034-1.321.059-1.986.077-.136.006-.275.012-.411.012q-1.341.042-2.692.053c-.381,0-.761.006-1.145.006-.179,0-.359,0-.538,0q-3.894-.014-7.729-.254c-.053,0-.105-.009-.158-.009-.916-.062-1.829-.127-2.738-.207q-4.859-.408-9.613-1.176-1.1-.172-2.184-.371-4.729-.835-9.335-2.014-1.369-.348-2.723-.727a129,129,0,0,1-15.306-5.316q-4.293-1.8-8.425-3.892-1.861-.942-3.685-1.943c-.331-.179-.659-.362-.987-.545q-3.592-2-7.036-4.226-2.822-1.815-5.538-3.775c-.223-.155-.442-.316-.662-.476q-2.084-1.518-4.1-3.113-4.386-3.476-8.459-7.3-2.817-2.645-5.47-5.458a130.475,130.475,0,0,1-24.681-37.23q-1.921-4.386-3.527-8.932a.057.057,0,0,1-.006-.022A130.279,130.279,0,1,1,435.88,159.257Z" transform="translate(-175.363 -28.999)" fill="#ecedf8"/>
    <path id="Path_16" data-name="Path 16" d="M545.137,42.424v164.6H438.7V38.442a130.6,130.6,0,0,1,106.434,3.982Z" transform="translate(-357.225 -28.999)" fill="#edf9ff"/>
    <path id="Path_17" data-name="Path 17" d="M431.041,288.4c2.887-4.775,6.309-9.874,11.667-11.433,6.205-1.806,12.579,1.781,17.986,5.321a524.091,524.091,0,0,1,46.643,34.366l-.016.185-34.805-2.4c-8.382-.578-17.053-1.236-24.46-5.2-2.811-1.5-5.551-3.515-8.736-3.655-3.957-.174-7.408,2.59-10.12,5.477-16.04,17.081-20.682,43.2-38.678,58.209A571.1,571.1,0,0,1,431.041,288.4Z" transform="translate(-323.95 -199.912)" fill="#fff"/>
    <path id="Path_18" data-name="Path 18" d="M507.876,47.754c-.269-.179-.541-.35-.811-.523a117.647,117.647,0,0,0-24.848-12.045L480.194,63.1H467.366V31.112c-.808-.167-1.621-.325-2.435-.473V63.1H449.687a31.642,31.642,0,0,1-31.642-31.642h0c-.817.176-1.627.365-2.438.566V63.1H403.19l-1.928-26.618A117.839,117.839,0,0,0,375.91,49.951c-.136.093-.272.189-.405.282-.684.48-1.358.968-2.03,1.463V207.075h36.593l-.647-8.957-3.558-98.065h71.654l-3.558,98.065-.647,8.957H509.5V48.831Q508.693,48.284,507.876,47.754Zm-92.27,44.176H405.275l-1.909-26.392h12.24Zm49.325,0H447.58v-.523a1.912,1.912,0,0,0-1.915-1.912h-7.543a1.911,1.911,0,0,0-1.912,1.912v.523H418.044V65.539h46.887Zm2.435,0V65.539h12.651l-1.909,26.392Z" transform="translate(-312.179 -30.131)" fill="#3f3d56"/>
    <path id="Path_19" data-name="Path 19" d="M444.856,590.08c0,.009-.006.016-.009.025-.022.065-.043.124-.068.189v0q-1.583,4.446-3.478,8.744l-238.623-.26q-1.921-4.386-3.527-8.932a.057.057,0,0,1-.006-.022Z" transform="translate(-191.786 -416.306)" fill="#3f3d56"/>
    <rect id="Rectangle_36" data-name="Rectangle 36" width="41.769" height="5.569" transform="translate(122.124 174.793)" fill="#fff"/>
    <path id="Path_20" data-name="Path 20" d="M348.741,688.848q.223-1.963.616-3.9a45.235,45.235,0,0,1,8.966-19.164c2.553.142,4.79-.247,5-5.192.04-.879.693-1.643.835-2.509-.241.034-.492.053-.733.068-.077,0-.158.009-.232.012h-.028a1.389,1.389,0,0,1-1.142-2.265c.105-.127.21-.257.316-.387.158-.2.322-.4.483-.594l.053-.062c.183-.226.365-.452.551-.678a4.023,4.023,0,0,0-1.318-1.275,4.634,4.634,0,0,0-5.712,1.333,7.265,7.265,0,0,0-1.123,6.083,16.162,16.162,0,0,0,2.228,4.969c-.1.127-.2.251-.3.381a45.584,45.584,0,0,0-4.749,7.525c.377-2.948-4.236-13.592-6.021-15.847a3.883,3.883,0,0,0-6.915,1.909c0,.031-.009.065-.012.1.266.148.526.306.78.476a1.9,1.9,0,0,1-.767,3.462l-.04.006c-3.546,5.065,7.825,18.249,10.674,15.291a44.886,44.886,0,0,0-1.711,6.169,45.635,45.635,0,0,0-.792,5.6,44.031,44.031,0,0,0,.034,7.113.787.787,0,0,1-.012-.083c-.634-5.155-11.485-12.819-14.653-12.181-1.825.368-3.623.285-3.345,2.126,0,.031.009.059.012.09a12.188,12.188,0,0,1,1.433.69c.266.148.526.309.78.477a1.905,1.905,0,0,1-.486,3.4q2.019,1.592,4.1,3.113c.22.161.439.322.662.476q2.715,1.959,5.538,3.775,3.444,2.218,7.036,4.226c.328.183.656.365.987.545a44.412,44.412,0,0,1-1.256-10.461A43.231,43.231,0,0,1,348.741,688.848Zm1.692-11.055.006-.009a.024.024,0,0,1-.006.015Zm-2.466,22.249-.1-.213c0-.158,0-.312,0-.473,0-.043-.009-.087-.009-.13.037.275.068.551.108.826Zm14.211.421c.034-.142.062-.241.1-.384-.012-.031-.025-.062-.037-.09-1.03-2.454-6.47,2.494-8.821,6.074q4.13,2.088,8.425,3.892c.192-.241.39-.48.585-.721.019-.022.034-.04.049-.062.421-.52.845-1.033,1.262-1.553,0-.1,0-.2,0-.3a18.641,18.641,0,0,0-.545-4.421,1.4,1.4,0,0,1-1.018-2.432Z" transform="translate(-281.907 -459.517)" fill="#12a25a"/>
    <path id="Path_21" data-name="Path 21" d="M645.057,574.314a6.173,6.173,0,0,0,9.123-2.524l21.842,2.043-5.362-10.06-19.919-.4a6.207,6.207,0,0,0-5.684,10.938Z" transform="translate(-497.857 -397.761)" fill="#ffb6b6"/>
    <path id="Path_22" data-name="Path 22" d="M722.7,502.308l30.226,3.389.1-.133c.2-.255,19.977-25.571,23.3-31.6a18.22,18.22,0,0,0,2.11-11.934l-.023-.1-.079-.067a9.247,9.247,0,0,0-11.562-.253,65.5,65.5,0,0,0-18.9,23.355l-2.5,5.2L722.7,492.408Z" transform="translate(-553.355 -326.445)" fill="#5050e3"/>
    <path id="Path_23" data-name="Path 23" d="M609.731,816.8l-5.823,13.558q-1.253.088-2.509.142c-.662.034-1.321.059-1.986.077l-.226.071-.186-.059q-1.341.042-2.692.053c-.381,0-.761.006-1.145.006-.18,0-.359,0-.538,0l.387-1.324.455-1.569,1.807-6.213,2.608-8.97,3.88,1.665Z" transform="translate(-464.905 -570.133)" fill="#ffb6b6"/>
    <path id="Path_24" data-name="Path 24" d="M751.818,817.254q-4.488,2.167-9.158,3.988l-3.045-5.121,9.814-4.31Z" transform="translate(-565.035 -569.608)" fill="#ffb6b6"/>
    <path id="Path_25" data-name="Path 25" d="M833.624,754.181v10.786q-2.715,2-5.538,3.867V754.181Z" transform="translate(-626.132 -529.809)" fill="#cacaca"/>
    <path id="Path_26" data-name="Path 26" d="M805.186,732.1q-2.334,2.59-4.808,5.046a130.314,130.314,0,0,1-12.339,10.829h-24.69a4.6,4.6,0,0,1-3.463-1.569l0-.009a4.557,4.557,0,0,1-1.039-2.042l0-.006a4.739,4.739,0,0,1-.105-.99v-6.643a4.619,4.619,0,0,1,4.613-4.616Z" transform="translate(-578.239 -514.56)" fill="#3a3c3c"/>
    <path id="Path_27" data-name="Path 27" d="M702.412,632.485l-2.676,11.466a24.1,24.1,0,0,1,.26,5.025q-1.9,2.553-3.926,5-1.866,2.26-3.83,4.434-2.335,2.59-4.808,5.046a51.03,51.03,0,0,1-14.647,1.937c-1.826.015-3.679-.034-5.538-.133a151.9,151.9,0,0,1-21.414-2.862c-1.652-.328-3.205-.662-4.635-.987-2.707-.609-4.972-1.179-6.612-1.612-1.847-.483-2.9-.8-2.9-.8l-7.026,11.767-6.38,10.68-8.221,10.492q-1.179.107-2.361.18-1.253.088-2.509.142c-.662.034-1.321.059-1.986.077l-.226.071-.186-.059-2.983-.95-1.006-.319-3.617-1.151s.807-2.543,2.221-6.785c.52-1.556,4.2-13.063,8.054-23.109,1.142-2.983,2.324-6.009,3.54-9.019,1-2.472,2.011-4.935,3.038-7.364,1.785-4.211,10.411-6.482,20.569-7.673.517-.059,1.036-.118,1.559-.173,5.176-.545,10.668-.826,15.8-.956,2.571-.065,5.052-.09,7.361-.093q1.119,0,2.175.006h0c1.9.009,3.654.037,5.195.068.3.006.591.015.876.022h0c.192,0,.381.009.566.012,3.369.087,5.436.192,5.436.192l.8-6.287.164-1.269.155-1.207v0l.019-.152.127,0,2.228-.043,18.725-.365,7.976-.338Z" transform="translate(-465.292 -440.872)" fill="#2f2e41"/>
    <path id="Path_28" data-name="Path 28" d="M702.006,740.6c-.764.39-1.535.774-2.308,1.145q-4.488,2.167-9.158,3.988c-.888.35-1.779.687-2.679,1.012-.1-.139-.2-.279-.3-.418-4.294-5.894-6.968-9.65-12.491-18.3-2.311-3.62-4.635-7.395-6.89-11.25l16.33-7.624,1.832-.854,5.266,10.368,4.7,9.248,1.046,2.057Z" transform="translate(-515.699 -498.117)" fill="#2f2e41"/>
    <circle id="Ellipse_2" data-name="Ellipse 2" cx="15.045" cy="15.045" r="15.045" transform="translate(197.751 87.5)" fill="#ffb6b6"/>
    <path id="Path_29" data-name="Path 29" d="M860.445,445.269c-.124-12.426.241-8.827-.743-13.106-2.642-11.5-13.611-13.6-15.523-13.861a4.222,4.222,0,0,0-5.708-2.354l-3.661,1.9c-3.549,1.624-1.395,3.971-2.62,7.675l-1.287,3.929-8.852,24.47-1.7,4.685,2.135,11.092,0,.006,1.439,7.472,4.266,4.86-.08-.776-.1.149,0,0-.247.368c.343.189.684.374,1.018.56q1.3.715,2.534,1.4c.2.111.393.22.588.331h0c.124.068.247.136.368.2,3.088,1.727-8.342,4.87-5.8,6.346.353.2.7.408,1.046.61,11.7,6.841,21.027,15.362,24.044,17.837q2.024-2.45,3.926-5,1.727-2.307,3.345-4.694c.189-1.244.316-2.488.439-3.707.148-1.467-.625-15.052-.365-16.547a2.75,2.75,0,0,0-.749-1.9,2.536,2.536,0,0,1-.687-1.6,3.792,3.792,0,0,1,1.2-1.627A3.94,3.94,0,0,0,860,472.122c.247-1.819-.77-3.645-.579-5.476q.473-4.469.727-8.966Q860.508,451.469,860.445,445.269Z" transform="translate(-620.794 -295.96)" fill="#5050e3"/>
    <path id="Path_30" data-name="Path 30" d="M671.8,596.845a6.173,6.173,0,0,1,9.448.586l20.95-6.507-3.17,10.95-19.409,4.5a6.207,6.207,0,0,1-7.819-9.53Z" transform="translate(-517.003 -417.064)" fill="#ffb6b6"/>
    <path id="Path_31" data-name="Path 31" d="M757.751,505.8l38.886-8.017-10.092,2.5c.115-.3,11.457-30.359,12.835-37.1a18.22,18.22,0,0,0-1.539-12.021l-.052-.089-.095-.04a9.246,9.246,0,0,0-11.113,3.2,65.5,65.5,0,0,0-11.09,27.923l-.837,5.713-13.71,4.1Z" transform="translate(-577.559 -319.961)" fill="#5050e3"/>
    <path id="Path_32" data-name="Path 32" d="M518.411,547.622a1.985,1.985,0,0,0,1.913,1.34l8.2-.211a1.958,1.958,0,0,0,1.85-1.441l1.16-12.4a3.029,3.029,0,0,0,1.311.269,2.989,2.989,0,0,0-.15-5.977,2.534,2.534,0,0,0-.537.056,2.026,2.026,0,0,0-1.508-.651l-12.608.326a1.821,1.821,0,0,0-.311.039,1.969,1.969,0,0,0-1.508,2.557Zm13.358-13.557.825-2.956a2.013,2.013,0,0,0,.006-1.044c.04,0,.075-.019.115-.019a2.138,2.138,0,1,1,.1,4.275A2.012,2.012,0,0,1,531.769,534.065Z" transform="translate(-410.689 -374.026)" fill="#2f2e41"/>
    <path id="Path_33" data-name="Path 33" d="M521.317,528.969c.269,1.536,3.289,2.616,6.92,2.428,3.339-.154,6.07-1.326,6.57-2.716a1.867,1.867,0,0,0-.571-.076l-12.608.326A1.8,1.8,0,0,0,521.317,528.969Z" transform="translate(-414.279 -374.025)" fill="#3f3d56"/>
    <path id="Path_34" data-name="Path 34" d="M344.106,490.651v26.517a1.276,1.276,0,0,0,1.274,1.274h39.3a1.275,1.275,0,0,0,1.274-1.274V490.651a1.276,1.276,0,0,0-1.274-1.273h-39.3A1.276,1.276,0,0,0,344.106,490.651Z" transform="translate(-291.897 -346.936)" fill="#3f3d56"/>
    <path id="Path_35" data-name="Path 35" d="M347.086,493.036V518.9a.682.682,0,0,0,.681.681h38.64a.682.682,0,0,0,.681-.681v-25.86a.683.683,0,0,0-.681-.683h-38.64A.683.683,0,0,0,347.086,493.036Z" transform="translate(-293.954 -348.991)" fill="url(#linear-gradient)"/>
    <path id="Path_36" data-name="Path 36" d="M341.061,586.175a.764.764,0,0,0,.6.288h42.076a.774.774,0,0,0,.757-.933l-.653-3.1a.776.776,0,0,0-.482-.562.752.752,0,0,0-.275-.052H342.313a.752.752,0,0,0-.275.052.776.776,0,0,0-.482.562l-.653,3.1A.774.774,0,0,0,341.061,586.175Z" transform="translate(-289.674 -410.771)" fill="#2f2e41"/>
    <rect id="Rectangle_37" data-name="Rectangle 37" width="1.296" height="0.778" rx="0.389" transform="translate(93.113 172.378) rotate(180)" fill="#3f3d56"/>
    <rect id="Rectangle_38" data-name="Rectangle 38" width="1.296" height="0.778" rx="0.389" transform="translate(90.521 172.378) rotate(180)" fill="#3f3d56"/>
    <rect id="Rectangle_39" data-name="Rectangle 39" width="1.296" height="0.778" rx="0.389" transform="translate(87.929 172.378) rotate(180)" fill="#3f3d56"/>
    <rect id="Rectangle_40" data-name="Rectangle 40" width="1.296" height="0.778" rx="0.389" transform="translate(85.337 172.378) rotate(180)" fill="#3f3d56"/>
    <rect id="Rectangle_41" data-name="Rectangle 41" width="1.296" height="0.778" rx="0.389" transform="translate(82.746 172.378) rotate(180)" fill="#3f3d56"/>
    <rect id="Rectangle_42" data-name="Rectangle 42" width="1.296" height="0.778" rx="0.389" transform="translate(80.154 172.378) rotate(180)" fill="#3f3d56"/>
    <rect id="Rectangle_43" data-name="Rectangle 43" width="1.296" height="0.778" rx="0.389" transform="translate(77.562 172.378) rotate(180)" fill="#3f3d56"/>
    <rect id="Rectangle_44" data-name="Rectangle 44" width="1.296" height="0.778" rx="0.389" transform="translate(74.97 172.378) rotate(180)" fill="#3f3d56"/>
    <rect id="Rectangle_45" data-name="Rectangle 45" width="1.296" height="0.778" rx="0.389" transform="translate(72.378 172.378) rotate(180)" fill="#3f3d56"/>
    <rect id="Rectangle_46" data-name="Rectangle 46" width="1.296" height="0.778" rx="0.389" transform="translate(69.786 172.378) rotate(180)" fill="#3f3d56"/>
    <rect id="Rectangle_47" data-name="Rectangle 47" width="1.296" height="0.778" rx="0.389" transform="translate(67.194 172.378) rotate(180)" fill="#3f3d56"/>
    <rect id="Rectangle_48" data-name="Rectangle 48" width="1.296" height="0.778" rx="0.389" transform="translate(64.603 172.378) rotate(180)" fill="#3f3d56"/>
    <rect id="Rectangle_49" data-name="Rectangle 49" width="1.296" height="0.778" rx="0.389" transform="translate(62.011 172.378) rotate(180)" fill="#3f3d56"/>
    <rect id="Rectangle_50" data-name="Rectangle 50" width="1.296" height="0.778" rx="0.389" transform="translate(59.419 172.378) rotate(180)" fill="#3f3d56"/>
    <rect id="Rectangle_51" data-name="Rectangle 51" width="1.296" height="0.778" rx="0.389" transform="translate(56.827 172.378) rotate(180)" fill="#3f3d56"/>
    <rect id="Rectangle_52" data-name="Rectangle 52" width="1.296" height="0.778" rx="0.389" transform="translate(54.235 172.378) rotate(180)" fill="#3f3d56"/>
    <rect id="Rectangle_53" data-name="Rectangle 53" width="1.296" height="0.778" rx="0.389" transform="translate(93.144 173.674) rotate(180)" fill="#3f3d56"/>
    <rect id="Rectangle_54" data-name="Rectangle 54" width="1.296" height="0.778" rx="0.389" transform="translate(90.552 173.674) rotate(180)" fill="#3f3d56"/>
    <rect id="Rectangle_55" data-name="Rectangle 55" width="1.296" height="0.778" rx="0.389" transform="translate(87.96 173.674) rotate(180)" fill="#3f3d56"/>
    <rect id="Rectangle_56" data-name="Rectangle 56" width="1.296" height="0.778" rx="0.389" transform="translate(85.368 173.674) rotate(180)" fill="#3f3d56"/>
    <rect id="Rectangle_57" data-name="Rectangle 57" width="1.296" height="0.778" rx="0.389" transform="translate(82.776 173.674) rotate(180)" fill="#3f3d56"/>
    <rect id="Rectangle_58" data-name="Rectangle 58" width="1.296" height="0.778" rx="0.389" transform="translate(80.184 173.674) rotate(180)" fill="#3f3d56"/>
    <rect id="Rectangle_59" data-name="Rectangle 59" width="1.296" height="0.778" rx="0.389" transform="translate(77.592 173.674) rotate(180)" fill="#3f3d56"/>
    <rect id="Rectangle_60" data-name="Rectangle 60" width="1.296" height="0.778" rx="0.389" transform="translate(75.001 173.674) rotate(180)" fill="#3f3d56"/>
    <rect id="Rectangle_61" data-name="Rectangle 61" width="1.296" height="0.778" rx="0.389" transform="translate(72.409 173.674) rotate(180)" fill="#3f3d56"/>
    <rect id="Rectangle_62" data-name="Rectangle 62" width="1.296" height="0.778" rx="0.389" transform="translate(69.817 173.674) rotate(180)" fill="#3f3d56"/>
    <rect id="Rectangle_63" data-name="Rectangle 63" width="1.296" height="0.778" rx="0.389" transform="translate(67.225 173.674) rotate(180)" fill="#3f3d56"/>
    <rect id="Rectangle_64" data-name="Rectangle 64" width="1.296" height="0.778" rx="0.389" transform="translate(64.633 173.674) rotate(180)" fill="#3f3d56"/>
    <rect id="Rectangle_65" data-name="Rectangle 65" width="1.296" height="0.778" rx="0.389" transform="translate(62.041 173.674) rotate(180)" fill="#3f3d56"/>
    <rect id="Rectangle_66" data-name="Rectangle 66" width="1.296" height="0.778" rx="0.389" transform="translate(59.449 173.674) rotate(180)" fill="#3f3d56"/>
    <rect id="Rectangle_67" data-name="Rectangle 67" width="1.296" height="0.778" rx="0.389" transform="translate(56.858 173.674) rotate(180)" fill="#3f3d56"/>
    <rect id="Rectangle_68" data-name="Rectangle 68" width="1.296" height="0.778" rx="0.389" transform="translate(54.266 173.674) rotate(180)" fill="#3f3d56"/>
    <rect id="Rectangle_69" data-name="Rectangle 69" width="10.367" height="0.778" rx="0.389" transform="translate(80.703 175.229) rotate(180)" fill="#3f3d56"/>
    <path id="Path_37" data-name="Path 37" d="M644.291,556.6l17.586-15.375c.836-.731-.758,1.447-.027,2.283s3.511.014,2.675.745l-17.586,15.375-4.454,1.017Z" transform="translate(-497.957 -382.641)" fill="#d35a4a"/>
    <path id="Path_38" data-name="Path 38" d="M644.291,590.419l.426-.373a4.95,4.95,0,0,1,2.545,3.118l-.324.283-3.55.81-.9.207.377-.847Z" transform="translate(-497.957 -416.457)" fill="#f2e5c2"/>
    <path id="Path_39" data-name="Path 39" d="M642.862,601.586a.922.922,0,0,1,.527.641l-.9.207Z" transform="translate(-497.957 -424.426)" fill="#3f3d56"/>
    <path id="Path_40" data-name="Path 40" d="M871.566,335.194a13.047,13.047,0,0,1-7.172,5.049,15,15,0,0,1-3.57.606,13.5,13.5,0,0,0-1.061-3.967,11.145,11.145,0,0,1-.551,3.957,13.264,13.264,0,0,1-5.22-1.4,11.5,11.5,0,0,1-6.154-8.255c-.637-4.115,1.228-8.156,1.9-12.265s-.594-9.313-4.616-10.393c-3.063-.823-2.72-.467-5.266,1.423,2.649,3.916-7.135,18.269-11.139,17.017-2.264-.708-3.713-2.785-4.18-2.785-3.147,5.421,2.778,14.554-3.193,16.451l.492-.492c3.6-4.434-3.929-13.818-.325-18.252,1.006-1.241,2.076-2.71,1.779-4.279-.282-1.491-2.648-2.28-3.342-1.055a5.632,5.632,0,0,0-3.642-7.4c-2.707-.653-2.658.152-5.374.5a13.485,13.485,0,0,0-.987-3.407,11.058,11.058,0,0,1-.405,3.471,4.359,4.359,0,0,1-2.636-.953c-2.215-1.785-1.767-5.535.21-7.58s4.923-2.782,7.729-3.258c.816-5.681,16.49-6.273,18.567-.6.885-4.239,6.191-6.439,10.316-5.124s6.986,5.167,8.493,9.226,1.928,8.422,2.856,12.648,2.5,8.53,5.727,11.411,8.493,3.83,11.9,1.157A9.527,9.527,0,0,1,871.566,335.194Z" transform="translate(-610.487 -210.512)" fill="#2f2e41"/>
  </g>
</svg>
